<?xml version="1.0" standalone="no"?>
<!DOCTYPE svg PUBLIC "-//W3C//DTD SVG 20010904//EN"
 "http://www.w3.org/TR/2001/REC-SVG-20010904/DTD/svg10.dtd">
<svg version="1.0" xmlns="http://www.w3.org/2000/svg"
 width="220.000000pt" height="220.000000pt" viewBox="0 0 220.000000 220.000000"
 preserveAspectRatio="xMidYMid meet">

<g transform="translate(0.000000,220.000000) scale(0.100000,-0.100000)"
fill="#000000" stroke="none">
<path d="M687 1489 c-34 -20 -47 -64 -47 -165 0 -96 0 -96 34 -130 28 -28 41
-34 78 -34 83 0 118 51 118 170 0 79 -17 130 -51 154 -26 18 -104 21 -132 5z"/>
<path d="M1381 1484 c-33 -24 -51 -74 -51 -146 0 -125 27 -168 110 -176 46 -4
52 -2 85 31 l35 35 0 96 c0 103 -13 146 -49 166 -30 15 -104 12 -130 -6z"/>
<path d="M535 983 c-57 -14 -83 -82 -65 -171 38 -186 201 -354 415 -429 72
-25 93 -28 215 -28 122 0 143 3 215 28 214 75 376 242 414 429 21 99 -13 170
-81 170 -18 0 -89 -10 -158 -23 -111 -21 -155 -23 -385 -24 -226 0 -277 3
-390 23 -71 12 -137 24 -145 26 -8 2 -24 1 -35 -1z m159 -138 c42 -8 151 -20
243 -26 189 -14 430 -1 590 30 105 20 107 17 36 -53 -56 -54 -118 -91 -208
-123 -76 -27 -89 -28 -255 -28 -166 0 -179 2 -253 28 -115 40 -224 117 -259
180 -8 16 -7 18 10 13 10 -4 53 -13 96 -21z"/>
</g>
</svg>
